<svg width="500" height="500" viewBox="0 0 500 500" fill="none" xmlns="http://www.w3.org/2000/svg">
  <g clip-path="url(#a)">
    <path d="M235.898 318.404c-80.481-3.954-121.555 6.718-174.38-27.7L152.8 146.542c36.283 33.042 98.449 49.731 184.453 61.694z" fill="#962142"/>
    <path d="M235.898 318.404C159.038 300.12 120.933 299.968 59 256.71l103.873-147.94c33.7 40.97 77.945 71.387 174.38 99.466z" fill="#b32951"/>
    <path d="M67.814 192.497 175.463 69.109c53.469 64.771 88.476 95.706 161.79 139.127L235.898 318.404c-102.403-54.253-133.519-72.506-168.084-125.907" fill="#e13868"/>
    <path d="M275.835 27c-3.262 71.902 16.515 89.775 84.711 176.829 35.883-5.036 84.357 6.925 80.58 61.065-42.179-24.552-59.244 3.147-84.357 34.624-28.843 36.149-52.083 45.92-93.8 54.769-1.61 34.001 5.994 53.712 26.44 89.394-11.236 1.635-17.969-3.259-30.218-15.11-6.124 8.428-7.52 18.444-6.295 45.327-13.831-17.885-18.967-28.446-22.034-48.474-10.456 11.255-15.138 18.978-18.257 39.031C199.786 420.744 206 346 235.898 318.403c-83.649-101.769-92.946-140.875-76.172-193.265zm121.853 202.64a6.295 6.295 0 1 0 0 12.59 6.295 6.295 0 0 0 0-12.59" fill="#fe477b"/>
  </g>
  <defs>
    <clipPath id="a">
      <path fill="#fff" d="M0 0h500v500H0z"/>
    </clipPath>
  </defs>
</svg>
